<mxfile host="app.diagrams.net" modified="2022-02-10T00:39:53.745Z" agent="5.0 (Macintosh; Intel Mac OS X 10_15_7) AppleWebKit/537.36 (KHTML, like Gecko) Chrome/97.0.4692.99 Safari/537.36" etag="Tys0jYb0elnL4s6g-Uw9" version="16.5.3" type="github">
  <diagram id="R2lEEEUBdFMjLlhIrx00" name="Page-1">
    <mxGraphModel dx="1071" dy="688" grid="1" gridSize="10" guides="1" tooltips="1" connect="1" arrows="1" fold="1" page="1" pageScale="1" pageWidth="850" pageHeight="1100" math="0" shadow="0" extFonts="Permanent Marker^https://fonts.googleapis.com/css?family=Permanent+Marker">
      <root>
        <mxCell id="0" />
        <mxCell id="1" parent="0" />
        <mxCell id="fERCEWIXjoUG0clLVFIn-1" value="physician&amp;nbsp;" style="rounded=0;whiteSpace=wrap;html=1;" vertex="1" parent="1">
          <mxGeometry x="150" y="90" width="100" height="40" as="geometry" />
        </mxCell>
        <mxCell id="fERCEWIXjoUG0clLVFIn-2" value="" style="endArrow=none;html=1;rounded=0;exitX=0;exitY=0.5;exitDx=0;exitDy=0;" edge="1" parent="1" source="fERCEWIXjoUG0clLVFIn-1">
          <mxGeometry width="50" height="50" relative="1" as="geometry">
            <mxPoint x="130" y="118" as="sourcePoint" />
            <mxPoint x="120" y="110" as="targetPoint" />
          </mxGeometry>
        </mxCell>
        <mxCell id="fERCEWIXjoUG0clLVFIn-4" value="" style="endArrow=none;html=1;rounded=0;" edge="1" parent="1">
          <mxGeometry width="50" height="50" relative="1" as="geometry">
            <mxPoint x="200" y="88.75" as="sourcePoint" />
            <mxPoint x="200" y="60" as="targetPoint" />
          </mxGeometry>
        </mxCell>
        <mxCell id="fERCEWIXjoUG0clLVFIn-5" value="&lt;u&gt;physician ID&lt;/u&gt;" style="ellipse;whiteSpace=wrap;html=1;" vertex="1" parent="1">
          <mxGeometry x="160" y="20" width="80" height="40" as="geometry" />
        </mxCell>
        <mxCell id="fERCEWIXjoUG0clLVFIn-6" value="specialty" style="ellipse;whiteSpace=wrap;html=1;" vertex="1" parent="1">
          <mxGeometry x="50" y="90" width="70" height="40" as="geometry" />
        </mxCell>
        <mxCell id="fERCEWIXjoUG0clLVFIn-7" value="patient&amp;nbsp;" style="rounded=0;whiteSpace=wrap;html=1;" vertex="1" parent="1">
          <mxGeometry x="560" y="90" width="100" height="40" as="geometry" />
        </mxCell>
        <mxCell id="fERCEWIXjoUG0clLVFIn-8" value="email address" style="ellipse;whiteSpace=wrap;html=1;" vertex="1" parent="1">
          <mxGeometry x="573" y="20" width="70" height="40" as="geometry" />
        </mxCell>
        <mxCell id="fERCEWIXjoUG0clLVFIn-9" value="&lt;u&gt;patient ID&lt;/u&gt;" style="ellipse;whiteSpace=wrap;html=1;" vertex="1" parent="1">
          <mxGeometry x="690" y="90" width="70" height="40" as="geometry" />
        </mxCell>
        <mxCell id="fERCEWIXjoUG0clLVFIn-12" style="edgeStyle=orthogonalEdgeStyle;rounded=0;orthogonalLoop=1;jettySize=auto;html=1;exitX=0.5;exitY=1;exitDx=0;exitDy=0;" edge="1" parent="1" source="fERCEWIXjoUG0clLVFIn-5" target="fERCEWIXjoUG0clLVFIn-5">
          <mxGeometry relative="1" as="geometry" />
        </mxCell>
        <mxCell id="fERCEWIXjoUG0clLVFIn-13" value="" style="endArrow=none;html=1;rounded=0;" edge="1" parent="1">
          <mxGeometry width="50" height="50" relative="1" as="geometry">
            <mxPoint x="660" y="110" as="sourcePoint" />
            <mxPoint x="700" y="110" as="targetPoint" />
          </mxGeometry>
        </mxCell>
        <mxCell id="fERCEWIXjoUG0clLVFIn-14" value="" style="endArrow=none;html=1;rounded=0;exitX=0.5;exitY=0;exitDx=0;exitDy=0;" edge="1" parent="1" source="fERCEWIXjoUG0clLVFIn-7">
          <mxGeometry width="50" height="50" relative="1" as="geometry">
            <mxPoint x="600" y="100" as="sourcePoint" />
            <mxPoint x="610" y="60" as="targetPoint" />
          </mxGeometry>
        </mxCell>
        <mxCell id="fERCEWIXjoUG0clLVFIn-15" value="treatment detail" style="rounded=0;whiteSpace=wrap;html=1;" vertex="1" parent="1">
          <mxGeometry x="352" y="290" width="100" height="40" as="geometry" />
        </mxCell>
        <mxCell id="fERCEWIXjoUG0clLVFIn-16" value="" style="endArrow=none;html=1;rounded=0;exitX=0.25;exitY=1;exitDx=0;exitDy=0;" edge="1" parent="1">
          <mxGeometry width="50" height="50" relative="1" as="geometry">
            <mxPoint x="364.9999999999998" y="330.0000000000001" as="sourcePoint" />
            <mxPoint x="365" y="370" as="targetPoint" />
          </mxGeometry>
        </mxCell>
        <mxCell id="fERCEWIXjoUG0clLVFIn-17" value="date" style="ellipse;whiteSpace=wrap;html=1;rotation=-90;" vertex="1" parent="1">
          <mxGeometry x="340" y="370" width="50" height="30" as="geometry" />
        </mxCell>
        <mxCell id="fERCEWIXjoUG0clLVFIn-18" value="" style="endArrow=none;html=1;rounded=0;exitX=0.5;exitY=1;exitDx=0;exitDy=0;" edge="1" parent="1">
          <mxGeometry width="50" height="50" relative="1" as="geometry">
            <mxPoint x="401.9999999999998" y="330.0000000000001" as="sourcePoint" />
            <mxPoint x="402" y="360" as="targetPoint" />
          </mxGeometry>
        </mxCell>
        <mxCell id="fERCEWIXjoUG0clLVFIn-19" value="time&lt;br&gt;" style="ellipse;whiteSpace=wrap;html=1;rotation=-90;" vertex="1" parent="1">
          <mxGeometry x="377" y="370" width="50" height="30" as="geometry" />
        </mxCell>
        <mxCell id="fERCEWIXjoUG0clLVFIn-20" value="" style="endArrow=none;html=1;rounded=0;exitX=0.5;exitY=1;exitDx=0;exitDy=0;" edge="1" parent="1">
          <mxGeometry width="50" height="50" relative="1" as="geometry">
            <mxPoint x="437.9999999999998" y="332.0000000000001" as="sourcePoint" />
            <mxPoint x="438" y="362.0000000000001" as="targetPoint" />
          </mxGeometry>
        </mxCell>
        <mxCell id="fERCEWIXjoUG0clLVFIn-21" value="results" style="ellipse;whiteSpace=wrap;html=1;rotation=-90;" vertex="1" parent="1">
          <mxGeometry x="411" y="370" width="50" height="30" as="geometry" />
        </mxCell>
        <mxCell id="fERCEWIXjoUG0clLVFIn-30" value="" style="endArrow=none;html=1;rounded=0;" edge="1" parent="1">
          <mxGeometry relative="1" as="geometry">
            <mxPoint x="250" y="96.38" as="sourcePoint" />
            <mxPoint x="361.8655222601951" y="96.83779949703853" as="targetPoint" />
          </mxGeometry>
        </mxCell>
        <mxCell id="fERCEWIXjoUG0clLVFIn-32" value="admits" style="shape=rhombus;perimeter=rhombusPerimeter;whiteSpace=wrap;html=1;align=center;" vertex="1" parent="1">
          <mxGeometry x="361.5" y="78.25" width="80" height="35.5" as="geometry" />
        </mxCell>
        <mxCell id="fERCEWIXjoUG0clLVFIn-33" value="" style="endArrow=none;html=1;rounded=0;" edge="1" parent="1">
          <mxGeometry relative="1" as="geometry">
            <mxPoint x="440" y="96" as="sourcePoint" />
            <mxPoint x="560" y="96" as="targetPoint" />
          </mxGeometry>
        </mxCell>
        <mxCell id="fERCEWIXjoUG0clLVFIn-34" value="1...1" style="text;html=1;strokeColor=none;fillColor=none;align=center;verticalAlign=middle;whiteSpace=wrap;rounded=0;" vertex="1" parent="1">
          <mxGeometry x="240" y="70.5" width="60" height="30" as="geometry" />
        </mxCell>
        <mxCell id="fERCEWIXjoUG0clLVFIn-36" value="0...N" style="text;html=1;strokeColor=none;fillColor=none;align=center;verticalAlign=middle;whiteSpace=wrap;rounded=0;" vertex="1" parent="1">
          <mxGeometry x="510" y="69.5" width="60" height="30" as="geometry" />
        </mxCell>
        <mxCell id="fERCEWIXjoUG0clLVFIn-38" value="treats" style="shape=rhombus;perimeter=rhombusPerimeter;whiteSpace=wrap;html=1;align=center;" vertex="1" parent="1">
          <mxGeometry x="354.5" y="210" width="90" height="30" as="geometry" />
        </mxCell>
        <mxCell id="fERCEWIXjoUG0clLVFIn-39" value="" style="endArrow=none;html=1;rounded=0;exitX=0.5;exitY=1;exitDx=0;exitDy=0;" edge="1" parent="1" source="fERCEWIXjoUG0clLVFIn-38" target="fERCEWIXjoUG0clLVFIn-15">
          <mxGeometry relative="1" as="geometry">
            <mxPoint x="199" y="320" as="sourcePoint" />
            <mxPoint x="359" y="320" as="targetPoint" />
          </mxGeometry>
        </mxCell>
        <mxCell id="fERCEWIXjoUG0clLVFIn-43" value="0...N" style="text;html=1;strokeColor=none;fillColor=none;align=center;verticalAlign=middle;whiteSpace=wrap;rounded=0;rotation=0;" vertex="1" parent="1">
          <mxGeometry x="392" y="260" width="60" height="30" as="geometry" />
        </mxCell>
        <mxCell id="fERCEWIXjoUG0clLVFIn-48" value="" style="swimlane;startSize=0;" vertex="1" parent="1">
          <mxGeometry x="40" y="10" width="740" height="150" as="geometry" />
        </mxCell>
        <mxCell id="fERCEWIXjoUG0clLVFIn-49" value="" style="endArrow=none;html=1;rounded=0;entryX=0.485;entryY=1.005;entryDx=0;entryDy=0;entryPerimeter=0;" edge="1" parent="1" target="fERCEWIXjoUG0clLVFIn-48">
          <mxGeometry width="50" height="50" relative="1" as="geometry">
            <mxPoint x="399" y="210" as="sourcePoint" />
            <mxPoint x="420" y="160" as="targetPoint" />
          </mxGeometry>
        </mxCell>
        <mxCell id="fERCEWIXjoUG0clLVFIn-50" value="1....N" style="text;html=1;strokeColor=none;fillColor=none;align=center;verticalAlign=middle;whiteSpace=wrap;rounded=0;" vertex="1" parent="1">
          <mxGeometry x="388" y="157" width="60" height="30" as="geometry" />
        </mxCell>
      </root>
    </mxGraphModel>
  </diagram>
</mxfile>
